<?xml version="1.0" encoding="utf-8"?>
<!-- Generator: Adobe Illustrator 27.5.0, SVG Export Plug-In . SVG Version: 6.00 Build 0)  -->
<svg version="1.1" id="layer" xmlns="http://www.w3.org/2000/svg" xmlns:xlink="http://www.w3.org/1999/xlink" x="0px" y="0px"
	 viewBox="0 0 160 160" style="enable-background:new 0 0 160 160;" xml:space="preserve">
<style type="text/css">
	.st0{fill:#FFFFFF;}
</style>
<g>
	<path class="st0" d="M117.8,75.5c1.1,0,2.1,0,3.2,0c0.7-1.5,0.7-3.6,0-6.1c-0.7-3.6-1.8-6.1-3.9-5.8c-2.1,0.4-2.1,3.2-1.5,6.8
		C115.9,72.7,116.7,74.4,117.8,75.5L117.8,75.5z"/>
	<g>
		<path class="st0" d="M98.8,78.7c1.5,0.7,2.5,1.1,2.8,0.7c0.4-0.4,0-0.7-0.4-1.5c-0.7-1.5-2.5-2.5-3.9-3.2
			c-3.6-1.5-7.5-1.1-10.7,1.5c-1.1,0.7-2.1,1.8-1.8,2.5c0,0.4,0.4,0.4,0.7,0.4c0.7,0,3.9-1.5,7.5-1.8C95.2,77.2,97.3,78,98.8,78.7
			L98.8,78.7z"/>
		<path class="st0" d="M95.6,80.5c-2.1,0.4-3.2,1.1-3.9,1.8c-0.7,0.7-1.1,1.1-1.1,1.5v0.4H91c0.4,0,1.5-0.4,1.5-0.4
			c2.8-1.1,4.7-1.1,6.4-0.7c1.1,0,1.5,0.4,1.8,0c0,0,0-0.4,0-0.7C100.6,81.2,98.4,80.2,95.6,80.5L95.6,80.5z"/>
	</g>
	<g>
		<path class="st0" d="M96.7,83c0.7-1.5,0.7-4.7,0-7.1c-0.7-3.6-1.8-5.8-4.3-5.8c-2.1,0.4-2.1,3.2-1.5,7.1c0.4,2.5,1.5,3.9,1.8,5
			C94.5,85.2,95.6,84.4,96.7,83L96.7,83z"/>
	</g>
	<path class="st0" d="M111.3,86.9c1.5,0.7,2.8,0.4,3.6-0.7c0.4-1.1-0.4-2.5-1.8-3.2c-1.5-0.7-2.8-0.4-3.6,0.7
		C108.8,84.8,109.8,86.2,111.3,86.9z"/>
	<path class="st0" d="M120.2,79.1c-1.1,0-2.1,1.1-2.1,2.8c0,1.5,0.7,2.8,2.1,2.8c1.1,0,2.1-1.1,2.1-2.8
		C122.1,80.5,121.3,79.1,120.2,79.1z"/>
	<path class="st0" d="M44.5,106.9c-0.4-0.4-0.7-0.4-1.1,0c-0.4,0-0.7,0-1.1,0c-0.7,0-1.5-0.4-1.8-1.1s-0.4-1.8,0-3.2L41,102
		c1.1-2.1,2.5-5.4,0.7-8.6c-1.5-2.5-3.2-3.9-5.8-4.3c-2.5-0.4-5,0.7-6.4,2.5c-2.5,2.8-2.8,6.4-2.5,7.8c0,0.4,0.4,0.7,0.7,0.7
		c0.4,0,1.1-0.4,1.5-1.5v-0.4c0-0.7,0.4-1.5,1.1-2.5c0.7-1.1,1.8-1.8,2.8-1.8c1.1-0.4,2.5,0,3.6,0.7c1.8,1.1,2.5,3.2,1.8,5.4
		c-1.1,1.1-1.5,2.8-1.5,4.7c0.4,3.2,2.5,4.7,4.3,5c1.8,0,3.2-1.1,3.2-1.8C44.8,107.3,44.5,107.3,44.5,106.9L44.5,106.9z"/>
	<path class="st0" d="M148.4,100.9c0-0.4-0.4-1.8-1.1-3.9l-1.5-3.2c2.5-3.6,2.5-7.1,2.1-8.9c-0.4-2.1-1.5-4.3-3.2-6.4
		c-1.8-2.1-6.1-4.3-11.4-5.8l-2.8-0.7c0,0,0-6.8-0.4-9.7c0-2.1-0.4-5.4-1.5-8.6c-1.1-4.3-3.2-8.2-6.1-10.7
		c7.1-7.5,11.8-16.1,11.8-23.2c0-13.6-16.8-17.9-37.9-9.3l-4.3,1.8c0,0-7.8-7.8-8.2-7.8C60.9-16.3-13,66.2,10.5,86.2l5,4.3
		c-1.5,3.6-1.8,7.5-1.5,11.8c0.7,5.4,3.6,10.7,7.8,15c4.3,3.9,10,6.4,15.7,6.4c9.3,21.5,30.4,34.3,55,35.1
		c26.5,0.7,48.9-11.8,58.2-34c0.7-1.5,3.2-8.6,3.2-15C154.6,103.3,151,100.9,148.4,100.9L148.4,100.9z M39.8,117.7
		c-0.7,0-1.8,0.4-2.5,0c-7.8-0.4-16.8-7.5-17.5-16.1c-0.7-9.3,3.9-16.4,12.5-18.3c1.1-0.4,2.1-0.4,3.6-0.4
		c4.7,0.4,11.8,3.9,13.6,14.3C50.8,106.9,48.8,116.2,39.8,117.7z M30.9,77.6c-5.4,1.1-10,3.9-12.9,8.2c-1.8-1.5-5-4.3-5.4-5.4
		c-4.7-8.6,5-25.7,11.8-35.1C40.9,21.9,67,4,78.8,7.1c2.1,0.7,8.6,8.2,8.6,8.2s-12.1,6.8-23.2,16.1C49.1,42.6,37.7,59.4,30.9,77.6z
		 M115.2,114.1l0.4-0.4c0-0.4-0.4-0.4-0.4-0.4s-12.5,1.8-24.3-2.5c1.5-4.3,4.7-2.8,10-2.1c9.3,0.7,17.9-0.7,23.9-2.5
		c5.4-1.5,12.5-4.7,17.9-8.9c1.8,3.9,2.5,8.6,2.5,8.6s1.5-0.4,2.5,0.4c1.1,0.7,1.8,2.1,1.5,5.8c-1.1,7.1-4.3,12.5-8.9,17.9
		c-2.8,3.2-6.8,6.1-11,8.2c-2.1,1.1-4.7,2.1-7.1,2.8c-19.3,6.1-38.6-0.4-44.6-15c-0.4-1.1-1.1-2.1-1.1-3.6
		c-2.5-9.7-0.4-21.1,6.8-28.2l0,0c0.4-0.4,0.7-1.1,0.7-1.8c0-0.7-0.4-1.1-0.7-1.5c-2.5-3.6-11-9.7-9.3-21.5
		c1.1-8.6,8.6-14.3,15.3-14h1.8c2.8,0,5.8,0.7,7.8,0.7c3.9,0,7.8-0.4,12.1-3.9c1.5-1.1,2.5-2.1,4.7-2.5c0.4,0,0.7-0.4,1.8,0
		c1.1,0,2.1,0.4,2.8,1.1c3.6,2.5,3.9,7.8,4.3,12.1c0,2.5,0.4,8.2,0.4,9.7c0.4,3.6,1.1,4.3,3.2,5c1.1,0.4,2.1,0.7,3.6,1.1
		c4.7,1.5,7.5,2.5,9.3,4.3c1.1,1.1,1.5,2.1,1.8,3.2c0.7,3.9-3.2,8.9-12.9,13.6c-10.7,5-23.2,6.1-32.1,5l-3.2-0.4
		c-7.1-1.1-11,8.2-6.8,14.3c2.8,3.9,10.4,6.8,17.5,6.8c17.2,0,30.4-7.1,35.1-13.6l0.4-0.7c0.4-0.4,0-0.7-0.4-0.4
		c-3.9,2.8-21.8,13.6-40.7,10.4c0,0-2.1-0.4-4.3-1.1c-1.8-0.7-5-2.1-5.8-5.8C105.5,118.8,115.2,114.1,115.2,114.1L115.2,114.1z
		 M90.9,111.2L90.9,111.2L90.9,111.2L90.9,111.2L90.9,111.2z M61.6,45.5c5.8-6.8,13.2-12.9,19.6-16.1c0.4,0,0.4,0,0.4,0.4
		c-0.4,1.1-1.5,2.8-1.8,4.3c0,0.4,0.4,0.4,0.4,0.4c3.9-2.8,11-5.8,17.2-6.1c0.4,0,0.4,0.4,0.4,0.4c-1.1,0.7-1.8,1.8-2.8,2.8
		c0,0,0,0.4,0.4,0.4c4.3,0,10.4,1.5,14.3,3.9c0.4,0,0,0.7-0.4,0.7c-6.1-1.5-15.7-2.5-26.1,0c-9.3,2.1-16.1,5.8-21.1,9.3
		C61.6,45.8,61.3,45.8,61.6,45.5L61.6,45.5z"/>
</g>
</svg>
